<svg width="4336" height="3171" xmlns="http://www.w3.org/2000/svg" xmlns:xlink="http://www.w3.org/1999/xlink" xml:space="preserve" overflow="hidden"><defs><clipPath id="clip0"><rect x="-125" y="-125" width="4336" height="3171"/></clipPath></defs><g clip-path="url(#clip0)" transform="translate(125 125)"><path d="M-102.5 249C-102.5 181.897 116.881 127.5 387.5 127.5 658.12 127.5 877.5 181.897 877.5 249 877.5 316.103 658.12 370.5 387.5 370.5 116.881 370.5-102.5 316.103-102.5 249Z" stroke="#000000" stroke-width="9.16667" stroke-linejoin="round" stroke-miterlimit="10" fill="#FFFFFF" fill-rule="evenodd"/><text font-family="Arial,Arial_MSFontService,sans-serif" font-weight="400" font-size="55" transform="matrix(1 0 0 1 103.646 236)">/sensing/lidar/top/crop_</text><text font-family="Arial,Arial_MSFontService,sans-serif" font-weight="400" font-size="55" transform="matrix(1 0 0 1 217.931 302)">box_filter_self</text><path d="M-98.5002 765.5C-98.5002 698.121 120.656 643.5 391 643.5 661.343 643.5 880.5 698.121 880.5 765.5 880.5 832.879 661.343 887.5 391 887.5 120.656 887.5-98.5002 832.879-98.5002 765.5Z" stroke="#000000" stroke-width="9.16667" stroke-linejoin="round" stroke-miterlimit="10" fill="#FFFFFF" fill-rule="evenodd"/><text font-family="Arial,Arial_MSFontService,sans-serif" font-weight="400" font-size="55" transform="matrix(1 0 0 1 106.886 752)">/sensing/lidar/top/crop</text><text font-family="Arial,Arial_MSFontService,sans-serif" font-weight="400" font-size="55" transform="matrix(1 0 0 1 643.136 752)">_</text><text font-family="Arial,Arial_MSFontService,sans-serif" font-weight="400" font-size="55" transform="matrix(1 0 0 1 192.251 818)">box</text><text font-family="Arial,Arial_MSFontService,sans-serif" font-weight="400" font-size="55" transform="matrix(1 0 0 1 280.48 818)">_filter_mirror</text><path d="M-120.5 1257.5C-120.5 1190.12 109.849 1135.5 394 1135.5 678.15 1135.5 908.5 1190.12 908.5 1257.5 908.5 1324.88 678.15 1379.5 394 1379.5 109.849 1379.5-120.5 1324.88-120.5 1257.5Z" stroke="#000000" stroke-width="9.16667" stroke-linejoin="round" stroke-miterlimit="10" fill="#FFFFFF" fill-rule="evenodd"/><text font-family="Arial,Arial_MSFontService,sans-serif" font-weight="400" font-size="55" transform="matrix(1 0 0 1 67.7817 1244)">/sensing/lidar/top/</text><text font-family="Arial,Arial_MSFontService,sans-serif" font-weight="400" font-size="55" transform="matrix(1 0 0 1 497.469 1244)">distortion</text><text font-family="Arial,Arial_MSFontService,sans-serif" font-weight="400" font-size="55" transform="matrix(1 0 0 1 194.396 1310)">_corrector_node</text><path d="M-95.5001 1738.5C-95.5001 1671.12 123.657 1616.5 394 1616.5 664.343 1616.5 883.5 1671.12 883.5 1738.5 883.5 1805.88 664.343 1860.5 394 1860.5 123.657 1860.5-95.5001 1805.88-95.5001 1738.5Z" stroke="#000000" stroke-width="9.16667" stroke-linejoin="round" stroke-miterlimit="10" fill="#FFFFFF" fill-rule="evenodd"/><text font-family="Arial,Arial_MSFontService,sans-serif" font-weight="400" font-size="55" transform="matrix(1 0 0 1 118.198 1725)">/sensing/lidar/top/ring</text><text font-family="Arial,Arial_MSFontService,sans-serif" font-weight="400" font-size="55" transform="matrix(1 0 0 1 638.979 1725)">_</text><text font-family="Arial,Arial_MSFontService,sans-serif" font-weight="400" font-size="55" transform="matrix(1 0 0 1 252.261 1791)">outlier</text><text font-family="Arial,Arial_MSFontService,sans-serif" font-weight="400" font-size="55" transform="matrix(1 0 0 1 401.219 1791)">_filter</text><path d="M1335.5 171C1335.5 70.7601 1554.66-10.5002 1825-10.5002 2095.34-10.5002 2314.5 70.7601 2314.5 171 2314.5 271.24 2095.34 352.5 1825 352.5 1554.66 352.5 1335.5 271.24 1335.5 171Z" stroke="#000000" stroke-width="9.16667" stroke-linejoin="round" stroke-miterlimit="10" fill="#FFFFFF" fill-rule="evenodd"/><text font-family="Arial,Arial_MSFontService,sans-serif" font-weight="400" font-size="55" transform="matrix(1 0 0 1 1518.79 125)">/localization/util/</text><text font-family="Arial,Arial_MSFontService,sans-serif" font-weight="400" font-size="55" transform="matrix(1 0 0 1 1905.51 125)">crop_box</text><text font-family="Arial,Arial_MSFontService,sans-serif" font-weight="400" font-size="55" transform="matrix(1 0 0 1 1559.77 191)">_filter_measurement</text><text font-family="Arial,Arial_MSFontService,sans-serif" font-weight="400" font-size="55" transform="matrix(1 0 0 1 2059.35 191)">_</text><text font-family="Arial,Arial_MSFontService,sans-serif" font-weight="400" font-size="55" transform="matrix(1 0 0 1 1754.83 257)">range</text><path d="M1334.5 718.5C1334.5 651.121 1553.66 596.5 1824 596.5 2094.34 596.5 2313.5 651.121 2313.5 718.5 2313.5 785.879 2094.34 840.5 1824 840.5 1553.66 840.5 1334.5 785.879 1334.5 718.5Z" stroke="#000000" stroke-width="9.16667" stroke-linejoin="round" stroke-miterlimit="10" fill="#FFFFFF" fill-rule="evenodd"/><text font-family="Arial,Arial_MSFontService,sans-serif" font-weight="400" font-size="55" transform="matrix(1 0 0 1 1550.91 705)">/localization/util/voxel</text><text font-family="Arial,Arial_MSFontService,sans-serif" font-weight="400" font-size="55" transform="matrix(1 0 0 1 2065.39 705)">_</text><text font-family="Arial,Arial_MSFontService,sans-serif" font-weight="400" font-size="55" transform="matrix(1 0 0 1 1542.02 771)">grid</text><text font-family="Arial,Arial_MSFontService,sans-serif" font-weight="400" font-size="55" transform="matrix(1 0 0 1 1633.11 771)">_downsample_filter</text><path d="M1334.5 1257.5C1334.5 1190.12 1553.66 1135.5 1824 1135.5 2094.34 1135.5 2313.5 1190.12 2313.5 1257.5 2313.5 1324.88 2094.34 1379.5 1824 1379.5 1553.66 1379.5 1334.5 1324.88 1334.5 1257.5Z" stroke="#000000" stroke-width="9.16667" stroke-linejoin="round" stroke-miterlimit="10" fill="#FFFFFF" fill-rule="evenodd"/><text font-family="Arial,Arial_MSFontService,sans-serif" font-weight="400" font-size="55" transform="matrix(1 0 0 1 1521.96 1244)">/localization/util/</text><text font-family="Arial,Arial_MSFontService,sans-serif" font-weight="400" font-size="55" transform="matrix(1 0 0 1 1908.68 1244)">random_</text><text font-family="Arial,Arial_MSFontService,sans-serif" font-weight="400" font-size="55" transform="matrix(1 0 0 1 1602.75 1310)">downsample_filter</text><path d="M1288.5 1729C1288.5 1661.9 1527.8 1607.5 1823 1607.5 2118.2 1607.5 2357.5 1661.9 2357.5 1729 2357.5 1796.1 2118.2 1850.5 1823 1850.5 1527.8 1850.5 1288.5 1796.1 1288.5 1729Z" stroke="#000000" stroke-width="9.16667" stroke-linejoin="round" stroke-miterlimit="10" fill="#FFFFFF" fill-rule="evenodd"/><text font-family="Arial,Arial_MSFontService,sans-serif" font-weight="400" font-size="55" transform="matrix(1 0 0 1 1484.53 1715)">/localization/</text><text font-family="Arial,Arial_MSFontService,sans-serif" font-weight="400" font-size="55" transform="matrix(1 0 0 1 1785.89 1715)">pose_estimator</text><text font-family="Arial,Arial_MSFontService,sans-serif" font-weight="400" font-size="55" transform="matrix(1 0 0 1 1589.38 1781)">/</text><text font-family="Arial,Arial_MSFontService,sans-serif" font-weight="400" font-size="55" transform="matrix(1 0 0 1 1604.85 1781)">ndt_scan_matcher</text><path d="M1334.5 2217.5C1334.5 2150.12 1553.66 2095.5 1824 2095.5 2094.34 2095.5 2313.5 2150.12 2313.5 2217.5 2313.5 2284.88 2094.34 2339.5 1824 2339.5 1553.66 2339.5 1334.5 2284.88 1334.5 2217.5Z" stroke="#000000" stroke-width="9.16667" stroke-linejoin="round" stroke-miterlimit="10" fill="#FFFFFF" fill-rule="evenodd"/><text font-family="Arial,Arial_MSFontService,sans-serif" font-weight="400" font-size="55" transform="matrix(1 0 0 1 1527.98 2204)">/localization/</text><text font-family="Arial,Arial_MSFontService,sans-serif" font-weight="400" font-size="55" transform="matrix(1 0 0 1 1829.33 2204)">pose_twist</text><text font-family="Arial,Arial_MSFontService,sans-serif" font-weight="400" font-size="55" transform="matrix(1 0 0 1 2088.29 2204)">_</text><text font-family="Arial,Arial_MSFontService,sans-serif" font-weight="400" font-size="55" transform="matrix(1 0 0 1 1523.4 2270)">fusion</text><text font-family="Arial,Arial_MSFontService,sans-serif" font-weight="400" font-size="55" transform="matrix(1 0 0 1 1669.49 2270)">_filter</text><text font-family="Arial,Arial_MSFontService,sans-serif" font-weight="400" font-size="55" transform="matrix(1 0 0 1 1803.55 2270)">/</text><text font-family="Arial,Arial_MSFontService,sans-serif" font-weight="400" font-size="55" transform="matrix(1 0 0 1 1819.02 2270)">ekf_localizer</text><path d="M1334.5 2697C1334.5 2629.9 1553.66 2575.5 1824 2575.5 2094.34 2575.5 2313.5 2629.9 2313.5 2697 2313.5 2764.1 2094.34 2818.5 1824 2818.5 1553.66 2818.5 1334.5 2764.1 1334.5 2697Z" stroke="#000000" stroke-width="9.16667" stroke-linejoin="round" stroke-miterlimit="10" fill="#FFFFFF" fill-rule="evenodd"/><text font-family="Arial,Arial_MSFontService,sans-serif" font-weight="400" font-size="55" transform="matrix(1 0 0 1 1527.98 2684)">/localization/</text><text font-family="Arial,Arial_MSFontService,sans-serif" font-weight="400" font-size="55" transform="matrix(1 0 0 1 1829.33 2684)">pose_twist</text><text font-family="Arial,Arial_MSFontService,sans-serif" font-weight="400" font-size="55" transform="matrix(1 0 0 1 2088.29 2684)">_</text><text font-family="Arial,Arial_MSFontService,sans-serif" font-weight="400" font-size="55" transform="matrix(1 0 0 1 1556.63 2750)">fusion</text><text font-family="Arial,Arial_MSFontService,sans-serif" font-weight="400" font-size="55" transform="matrix(1 0 0 1 1702.72 2750)">_filter</text><text font-family="Arial,Arial_MSFontService,sans-serif" font-weight="400" font-size="55" transform="matrix(1 0 0 1 1836.78 2750)">/</text><text font-family="Arial,Arial_MSFontService,sans-serif" font-weight="400" font-size="55" transform="matrix(1 0 0 1 1852.25 2750)">stop_filter</text><path d="M2840.5 85.0001C2840.5 17.8975 3081.59-36.4999 3379-36.4999 3676.41-36.4999 3917.5 17.8975 3917.5 85.0001 3917.5 152.103 3676.41 206.5 3379 206.5 3081.59 206.5 2840.5 152.103 2840.5 85.0001Z" stroke="#000000" stroke-width="9.16667" stroke-linejoin="round" stroke-miterlimit="10" fill="#FFFFFF" fill-rule="evenodd"/><text font-family="Arial,Arial_MSFontService,sans-serif" font-weight="400" font-size="55" transform="matrix(1 0 0 1 3038.18 72)">/planning/</text><text font-family="Arial,Arial_MSFontService,sans-serif" font-weight="400" font-size="55" transform="matrix(1 0 0 1 3275.37 72)">scenario_planning</text><text font-family="Arial,Arial_MSFontService,sans-serif" font-weight="400" font-size="55" transform="matrix(1 0 0 1 3156.2 138)">/</text><text font-family="Arial,Arial_MSFontService,sans-serif" font-weight="400" font-size="55" transform="matrix(1 0 0 1 3171.67 138)">scenario_selector</text><path d="M2840.5 636.5C2840.5 539.85 3081.59 461.5 3379 461.5 3676.41 461.5 3917.5 539.85 3917.5 636.5 3917.5 733.15 3676.41 811.5 3379 811.5 3081.59 811.5 2840.5 733.15 2840.5 636.5Z" stroke="#000000" stroke-width="9.16667" stroke-linejoin="round" stroke-miterlimit="10" fill="#FFFFFF" fill-rule="evenodd"/><text font-family="Arial,Arial_MSFontService,sans-serif" font-weight="400" font-size="55" transform="matrix(1 0 0 1 3038.18 623)">/planning/</text><text font-family="Arial,Arial_MSFontService,sans-serif" font-weight="400" font-size="55" transform="matrix(1 0 0 1 3275.37 623)">scenario_planning</text><text font-family="Arial,Arial_MSFontService,sans-serif" font-weight="400" font-size="55" transform="matrix(1 0 0 1 3052.51 689)">/</text><text font-family="Arial,Arial_MSFontService,sans-serif" font-weight="400" font-size="55" transform="matrix(1 0 0 1 3067.98 689)">motion_velocity_smoother</text><path d="M2871.5 1188.5C2871.5 1121.12 3099.83 1066.5 3381.5 1066.5 3663.17 1066.5 3891.5 1121.12 3891.5 1188.5 3891.5 1255.88 3663.17 1310.5 3381.5 1310.5 3099.83 1310.5 2871.5 1255.88 2871.5 1188.5Z" stroke="#000000" stroke-width="9.16667" stroke-linejoin="round" stroke-miterlimit="10" fill="#FFFFFF" fill-rule="evenodd"/><text font-family="Arial,Arial_MSFontService,sans-serif" font-weight="400" font-size="55" transform="matrix(1 0 0 1 3053.27 1175)">/control/</text><text font-family="Arial,Arial_MSFontService,sans-serif" font-weight="400" font-size="55" transform="matrix(1 0 0 1 3248.63 1175)">trajectory_follower</text><text font-family="Arial,Arial_MSFontService,sans-serif" font-weight="400" font-size="55" transform="matrix(1 0 0 1 3693.22 1175)">/</text><text font-family="Arial,Arial_MSFontService,sans-serif" font-weight="400" font-size="55" transform="matrix(1 0 0 1 3133.18 1241)">controller_node_exe</text><path d="M2896.5 1636.5C2896.5 1569.12 3115.66 1514.5 3386 1514.5 3656.34 1514.5 3875.5 1569.12 3875.5 1636.5 3875.5 1703.88 3656.34 1758.5 3386 1758.5 3115.66 1758.5 2896.5 1703.88 2896.5 1636.5Z" stroke="#000000" stroke-width="9.16667" stroke-linejoin="round" stroke-miterlimit="10" fill="#FFFFFF" fill-rule="evenodd"/><text font-family="Arial,Arial_MSFontService,sans-serif" font-weight="400" font-size="55" transform="matrix(1 0 0 1 3187.41 1623)">/control/vehicle</text><text font-family="Arial,Arial_MSFontService,sans-serif" font-weight="400" font-size="55" transform="matrix(1 0 0 1 3552.93 1623)">_</text><text font-family="Arial,Arial_MSFontService,sans-serif" font-weight="400" font-size="55" transform="matrix(1 0 0 1 3265.03 1689)">cmd</text><text font-family="Arial,Arial_MSFontService,sans-serif" font-weight="400" font-size="55" transform="matrix(1 0 0 1 3368.73 1689)">_gate</text><path d="M392.156 369.939 395.09 616.754 384.778 616.877 381.844 370.061ZM405.34 611.476 390.24 642.595 374.405 611.843Z"/><path d="M395.156 886.926 398.363 1109.59 388.051 1109.74 384.844 887.074ZM408.6 1104.29 393.578 1135.45 377.665 1104.74Z"/><path d="M399.156 1379 399.157 1590.26 388.844 1590.26 388.844 1379ZM409.469 1585.11 394 1616.04 378.531 1585.11Z"/><path d="M5.15616-0.0298429 6.4184 218.055-3.89393 218.115-5.15616 0.0298429ZM16.7009 212.839 1.41145 243.866-14.2361 213.018Z" transform="matrix(-1 0 0 1 1824.41 352)"/><path d="M1828.16 840 1828.16 1109.65 1817.84 1109.65 1817.84 840ZM1838.47 1104.5 1823 1135.43 1807.53 1104.5Z"/><path d="M5.15622-0.0173494 5.8342 201.478-4.47824 201.513-5.15622 0.0173494ZM16.1293 196.288 0.764731 227.277-14.808 196.392Z" transform="matrix(-1 0 0 1 1823.76 1379)"/><path d="M1828.16 1849.98 1828.84 2069.24 1818.53 2069.27 1817.84 1850.02ZM1839.14 2064.05 1823.76 2095.04 1808.2 2064.15Z"/><path d="M1828.16 2339 1828.16 2548.49 1817.84 2548.49 1817.84 2339ZM1838.47 2543.33 1823 2574.27 1807.53 2543.33Z"/><path d="M3383.16 206 3383.16 435.069 3372.84 435.069 3372.84 206ZM3393.47 429.913 3378 460.85 3362.53 429.913Z"/><path d="M3383.16 810.95 3385.38 1040.02 3375.07 1040.12 3372.84 811.05ZM3395.65 1034.76 3380.48 1065.85 3364.71 1035.06Z"/><path d="M3386.16 1309.89 3389.98 1487.98 3379.67 1488.2 3375.85 1310.11ZM3400.18 1482.6 3385.38 1513.87 3369.25 1483.27Z"/><path d="M399.156 1859.82 399.156 1948.08 394 1942.93 1241.69 1942.93 1236.53 1948.08 1236.53-99.2648C1236.53-102.113 1238.84-104.421 1241.69-104.421L1824.96-104.421C1827.81-104.421 1830.11-102.113 1830.11-99.2648L1830.11-36.7815 1819.8-36.7815 1819.8-99.2648 1824.96-94.1085 1241.69-94.1085 1246.84-99.2648 1246.84 1948.08C1246.84 1950.93 1244.53 1953.24 1241.69 1953.24L394 1953.24C391.152 1953.24 388.844 1950.93 388.844 1948.08L388.844 1859.82ZM1840.43-41.9377 1824.96-11.0002 1809.49-41.9377Z"/><path d="M1828.16 2818.87 1828.16 2901.38 1823 2896.22 2722.75 2896.22 2717.59 2901.38 2717.59-119.507C2717.59-122.354 2719.9-124.663 2722.75-124.663L3378.18-124.663C3381.03-124.663 3383.33-122.354 3383.33-119.507L3383.33-62.7817 3373.02-62.7817 3373.02-119.507 3378.18-114.35 2722.75-114.35 2727.9-119.507 2727.9 2901.38C2727.9 2904.22 2725.6 2906.53 2722.75 2906.53L1823 2906.53C1820.15 2906.53 1817.84 2904.22 1817.84 2901.38L1817.84 2818.87ZM3393.65-67.938 3378.18-37.0005 3362.71-67.938Z"/><text font-family="Arial,Arial_MSFontService,sans-serif" font-weight="400" font-size="55" transform="matrix(1 0 0 1 447.223 466)">/sensing/lidar/top/</text><text font-family="Arial,Arial_MSFontService,sans-serif" font-weight="400" font-size="55" transform="matrix(1 0 0 1 876.911 466)">self_cropped</text><text font-family="Arial,Arial_MSFontService,sans-serif" font-weight="400" font-size="55" transform="matrix(1 0 0 1 1190.3 466)">/</text><text font-family="Arial,Arial_MSFontService,sans-serif" font-weight="400" font-size="55" transform="matrix(1 0 0 1 447.223 532)">pointcloud</text><text font-family="Arial,Arial_MSFontService,sans-serif" font-weight="400" font-size="55" transform="matrix(1 0 0 1 696.442 532)">_ex</text><text font-family="Arial,Arial_MSFontService,sans-serif" font-weight="400" font-size="55" transform="matrix(1 0 0 1 462.316 983)">/sensing/lidar/top/mirror</text><text font-family="Arial,Arial_MSFontService,sans-serif" font-weight="400" font-size="55" transform="matrix(1 0 0 1 1035.23 983)">_</text><text font-family="Arial,Arial_MSFontService,sans-serif" font-weight="400" font-size="55" transform="matrix(1 0 0 1 462.316 1049)">cropped</text><text font-family="Arial,Arial_MSFontService,sans-serif" font-weight="400" font-size="55" transform="matrix(1 0 0 1 659.972 1049)">/</text><text font-family="Arial,Arial_MSFontService,sans-serif" font-weight="400" font-size="55" transform="matrix(1 0 0 1 675.441 1049)">pointcloud_ex</text><text font-family="Arial,Arial_MSFontService,sans-serif" font-weight="400" font-size="55" transform="matrix(1 0 0 1 464.367 1473)">/sensing/lidar/top/rectified</text><text font-family="Arial,Arial_MSFontService,sans-serif" font-weight="400" font-size="55" transform="matrix(1 0 0 1 1085.98 1473)">/</text><text font-family="Arial,Arial_MSFontService,sans-serif" font-weight="400" font-size="55" transform="matrix(1 0 0 1 464.367 1539)">pointcloud</text><text font-family="Arial,Arial_MSFontService,sans-serif" font-weight="400" font-size="55" transform="matrix(1 0 0 1 713.586 1539)">_ex</text><text font-family="Arial,Arial_MSFontService,sans-serif" font-weight="400" font-size="55" transform="matrix(1 0 0 1 464.367 2054)">/sensing/lidar/top/outlier</text><text font-family="Arial,Arial_MSFontService,sans-serif" font-weight="400" font-size="55" transform="matrix(1 0 0 1 1043.01 2054)">_</text><text font-family="Arial,Arial_MSFontService,sans-serif" font-weight="400" font-size="55" transform="matrix(1 0 0 1 464.367 2120)">filtered</text><text font-family="Arial,Arial_MSFontService,sans-serif" font-weight="400" font-size="55" transform="matrix(1 0 0 1 628.794 2120)">/</text><text font-family="Arial,Arial_MSFontService,sans-serif" font-weight="400" font-size="55" transform="matrix(1 0 0 1 644.263 2120)">pointcloud</text><text font-family="Arial,Arial_MSFontService,sans-serif" font-weight="400" font-size="55" transform="matrix(1 0 0 1 1918.1 443)">/localization/util/</text><text font-family="Arial,Arial_MSFontService,sans-serif" font-weight="400" font-size="55" transform="matrix(1 0 0 1 2304.82 443)">measurement</text><text font-family="Arial,Arial_MSFontService,sans-serif" font-weight="400" font-size="55" transform="matrix(1 0 0 1 1918.1 509)">_range</text><text font-family="Arial,Arial_MSFontService,sans-serif" font-weight="400" font-size="55" transform="matrix(1 0 0 1 2088.25 509)">/</text><text font-family="Arial,Arial_MSFontService,sans-serif" font-weight="400" font-size="55" transform="matrix(1 0 0 1 2103.72 509)">pointcloud</text><text font-family="Arial,Arial_MSFontService,sans-serif" font-weight="400" font-size="55" transform="matrix(1 0 0 1 1918.1 958)">/localization/util/</text><text font-family="Arial,Arial_MSFontService,sans-serif" font-weight="400" font-size="55" transform="matrix(1 0 0 1 2304.82 958)">voxel_grid</text><text font-family="Arial,Arial_MSFontService,sans-serif" font-weight="400" font-size="55" transform="matrix(1 0 0 1 1918.1 1024)">_downsample</text><text font-family="Arial,Arial_MSFontService,sans-serif" font-weight="400" font-size="55" transform="matrix(1 0 0 1 2255.55 1024)">/</text><text font-family="Arial,Arial_MSFontService,sans-serif" font-weight="400" font-size="55" transform="matrix(1 0 0 1 2271.01 1024)">pointcloud</text><text font-family="Arial,Arial_MSFontService,sans-serif" font-weight="400" font-size="55" transform="matrix(1 0 0 1 1918.1 1456)">/localization/util/</text><text font-family="Arial,Arial_MSFontService,sans-serif" font-weight="400" font-size="55" transform="matrix(1 0 0 1 2304.82 1456)">downsample</text><text font-family="Arial,Arial_MSFontService,sans-serif" font-weight="400" font-size="55" transform="matrix(1 0 0 1 2611.9 1456)">/</text><text font-family="Arial,Arial_MSFontService,sans-serif" font-weight="400" font-size="55" transform="matrix(1 0 0 1 1918.1 1522)">pointcloud</text><text font-family="Arial,Arial_MSFontService,sans-serif" font-weight="400" font-size="55" transform="matrix(1 0 0 1 1913.11 1942)">/localization/</text><text font-family="Arial,Arial_MSFontService,sans-serif" font-weight="400" font-size="55" transform="matrix(1 0 0 1 2214.47 1942)">pose_estimator</text><text font-family="Arial,Arial_MSFontService,sans-serif" font-weight="400" font-size="55" transform="matrix(1 0 0 1 2589.16 1942)">/</text><text font-family="Arial,Arial_MSFontService,sans-serif" font-weight="400" font-size="55" transform="matrix(1 0 0 1 1913.11 2008)">pose</text><text font-family="Arial,Arial_MSFontService,sans-serif" font-weight="400" font-size="55" transform="matrix(1 0 0 1 2031.71 2008)">_with_covariance</text><text font-family="Arial,Arial_MSFontService,sans-serif" font-weight="400" font-size="55" transform="matrix(1 0 0 1 1912.35 2433)">/localization/</text><text font-family="Arial,Arial_MSFontService,sans-serif" font-weight="400" font-size="55" transform="matrix(1 0 0 1 2213.7 2433)">pose_twist</text><text font-family="Arial,Arial_MSFontService,sans-serif" font-weight="400" font-size="55" transform="matrix(1 0 0 1 2472.66 2433)">_</text><text font-family="Arial,Arial_MSFontService,sans-serif" font-weight="400" font-size="55" transform="matrix(1 0 0 1 1912.35 2499)">fusion</text><text font-family="Arial,Arial_MSFontService,sans-serif" font-weight="400" font-size="55" transform="matrix(1 0 0 1 2058.44 2499)">/</text><text font-family="Arial,Arial_MSFontService,sans-serif" font-weight="400" font-size="55" transform="matrix(1 0 0 1 2073.91 2499)">kinematic_state</text><text font-family="Arial,Arial_MSFontService,sans-serif" font-weight="400" font-size="55" transform="matrix(1 0 0 1 1893.06 3000)">/localization/</text><text font-family="Arial,Arial_MSFontService,sans-serif" font-weight="400" font-size="55" transform="matrix(1 0 0 1 2194.41 3000)">kinematic_state</text><text font-family="Arial,Arial_MSFontService,sans-serif" font-weight="400" font-size="55" transform="matrix(1 0 0 1 3471.86 324)">/planning/</text><text font-family="Arial,Arial_MSFontService,sans-serif" font-weight="400" font-size="55" transform="matrix(1 0 0 1 3709.05 324)">scenario_planning</text><text font-family="Arial,Arial_MSFontService,sans-serif" font-weight="400" font-size="55" transform="matrix(1 0 0 1 4152.49 324)">/</text><text font-family="Arial,Arial_MSFontService,sans-serif" font-weight="400" font-size="55" transform="matrix(1 0 0 1 3471.86 390)">scenario_selector</text><text font-family="Arial,Arial_MSFontService,sans-serif" font-weight="400" font-size="55" transform="matrix(1 0 0 1 3900.98 390)">/trajectory</text><text font-family="Arial,Arial_MSFontService,sans-serif" font-weight="400" font-size="55" transform="matrix(1 0 0 1 3466.07 934)">/planning/</text><text font-family="Arial,Arial_MSFontService,sans-serif" font-weight="400" font-size="55" transform="matrix(1 0 0 1 3703.26 934)">scenario_planning</text><text font-family="Arial,Arial_MSFontService,sans-serif" font-weight="400" font-size="55" transform="matrix(1 0 0 1 4146.7 934)">/</text><text font-family="Arial,Arial_MSFontService,sans-serif" font-weight="400" font-size="55" transform="matrix(1 0 0 1 3466.07 1000)">trajectory</text><text font-family="Arial,Arial_MSFontService,sans-serif" font-weight="400" font-size="55" transform="matrix(1 0 0 1 3468.45 1385)">/control/</text><text font-family="Arial,Arial_MSFontService,sans-serif" font-weight="400" font-size="55" transform="matrix(1 0 0 1 3663.81 1385)">trajectory_follower</text><text font-family="Arial,Arial_MSFontService,sans-serif" font-weight="400" font-size="55" transform="matrix(1 0 0 1 4108.39 1385)">/</text><text font-family="Arial,Arial_MSFontService,sans-serif" font-weight="400" font-size="55" transform="matrix(1 0 0 1 3468.45 1451)">control</text><text font-family="Arial,Arial_MSFontService,sans-serif" font-weight="400" font-size="55" transform="matrix(1 0 0 1 3632.87 1451)">_cmd</text></g></svg>